{"title":"Killing Salazar (2016) 1080p Blu-ray x264 DTS-HD -DDR","uid":15711493,"size":9183935095,"categoryP":"video","categoryS":"hd___movies","magnet":"?xt=urn:btih:6cf2ccf92a444f7909e204ae7b4971808777bd05&amp;dn=Killing+Salazar+%282016%29+1080p+Blu-ray+x264+DTS-HD+-DDR&amp;tr=udp%3A%2F%2Ftracker.leechers-paradise.org%3A6969&amp;tr=udp%3A%2F%2Fzer0day.ch%3A1337&amp;tr=udp%3A%2F%2Fopen.demonii.com%3A1337&amp;tr=udp%3A%2F%2Ftracker.coppersurfer.tk%3A6969&amp;tr=udp%3A%2F%2Fexodus.desync.com%3A6969","seeders":15,"leechers":15,"uploader":"SaM","files":3,"time":1472578912,"description":"\n- HollyWooD Movie-\r\n\r\nKilling Salazar\r\n\r\n** 2016 **\r\n1080p / Blu-ray / x264\r\nEnglish DTS-HD 5.1 \r\n \nhttp://extraimago.com/image/wqeM \nhttp://extraimago.com/image/wqe9 \nhttp://extraimago.com/image/wqe3 \nhttp://extraimago.com/image/wqeb \nhttp://extraimago.com/image/wqeh \nhttp://extraimago.com/image/wqed \nhttp://extraimago.com/image/wqeI \nhttp://extraimago.com/image/wqel \nhttp://extraimago.com/image/wqei \nhttp://extraimago.com/image/wqem \nhttp://extraimago.com/image/wqeR \nhttp://extraimago.com/image/wqeQ \nhttp://extraimago.com/image/wqeL \nhttp://extraimago.com/image/wqey \nhttp://extraimago.com/image/wqeq \nhttp://extraimago.com/image/wqeS\r\n\r\n\r\nSOURCE: BD50 @ HDB\r\n\r\nFormat : Matroska\r\nFile size : 8.46 GiB\r\nDuration : 1 h 39 min\r\nOverall bit rate : 12.2 Mb/s\r\n\r\nVideo\r\nFormat : AVC\r\nFormat/Info : Advanced Video Codec\r\nFormat profile :   \r\nFormat settings, CABAC : Yes\r\nFormat settings, ReFrames : 4 frames\r\nCodec ID : V_MPEG4/ISO/AVC\r\nDuration : 1 h 39 min\r\nBit rate : 10 000 kb/s\r\nWidth : 1 920 pixels\r\nHeight : 1 080 pixels\r\nDisplay aspect ratio : 16:9\r\nFrame rate mode : Constant\r\nFrame rate : 23.976 (24000/1001) FPS\r\ncolor space : YUV\r\nChroma subsampling : 4:2:0\r\nBit depth : 8 bits\r\nScan type : Progressive\r\nBits/(Pixel*Frame) : 0.201\r\nStream size : 6.93 GiB (82%)\r\n\r\nAudio\r\nFormat : DTS\r\nFormat/Info : Digital Theater Systems\r\nFormat profile : MA / Core\r\nMode : 16\r\nFormat settings, Endianness : Big\r\nCodec ID : A_DTS\r\nDuration : 1 h 39 min\r\nBit rate mode : Variable / Constant\r\nBit rate : 2 205 kb/s / 1 509 kb/s\r\nChannel(s) : 6 channels\r\nChannel positions : Front: L C R, Side: L R, LFE\r\nSampling rate : 48.0 kHz\r\nFrame rate : 93.750 FPS (512 spf)\r\nBit depth : 16 bits\r\nCompression mode : Lossless / Lossy\r\nStream size : 1.53 GiB (18%)\r\nLanguage : English\r\nDefault : Yes\r\nForced : No\r\n\r\nChapters = Yes\r\nSample : Included","torrent":{"xt":"urn:btih:6cf2ccf92a444f7909e204ae7b4971808777bd05","amp;dn":"Killing+Salazar+%282016%29+1080p+Blu-ray+x264+DTS-HD+-DDR","amp;tr":["udp%3A%2F%2Ftracker.leechers-paradise.org%3A6969","udp%3A%2F%2Fzer0day.ch%3A1337","udp%3A%2F%2Fopen.demonii.com%3A1337","udp%3A%2F%2Ftracker.coppersurfer.tk%3A6969","udp%3A%2F%2Fexodus.desync.com%3A6969"],"infoHash":"6cf2ccf92a444f7909e204ae7b4971808777bd05","infoHashBuffer":{"type":"Buffer","data":[108,242,204,249,42,68,79,121,9,226,4,174,123,73,113,128,135,119,189,5]},"announce":[],"urlList":[]}}